<svg width="1193" height="269" viewBox="0 0 1193 269" fill="none" xmlns="http://www.w3.org/2000/svg">
<g opacity="0.5">
<path d="M1 98.5H1192" stroke="#B4B4CF"/>
<path d="M1 197.5H1192" stroke="#B4B4CF"/>
<path d="M1 148H1192" stroke="#B4B4CF"/>
<path d="M1 49H1192" stroke="#B4B4CF"/>
<path d="M1 247H1192" stroke="#B4B4CF"/>
</g>
<path opacity="0.1" d="M260.443 69.5821C170.873 50.1468 75.1512 135.737 1.76172 159.5V247H1192V22C1165.11 37.0296 1075.88 19.9904 994.914 24.5823C936.785 27.8788 889.208 60.9168 837.087 47.8757C688.07 10.59 638.943 -14.1546 583.025 11.5823C550.845 26.3937 535.292 28.6408 472.162 58.5821C421.349 82.6813 326.177 83.8453 260.443 69.5821Z" fill="#FFA74F"/>
<path d="M1 160C73.7305 136.237 173.934 50.1468 262.7 69.5821C327.843 83.8453 422.161 82.6813 472.517 58.5821C535.081 28.6408 550.494 26.3937 582.385 11.5823C637.8 -14.1546 686.487 10.59 834.166 47.8757C885.819 60.9168 932.968 27.8788 990.575 24.5823C1070.82 19.9904 1165.35 37.0296 1192 22" stroke="#FFA74F" stroke-width="2"/>
<path d="M2.656 266.108C2.144 266.108 1.744 266.032 1.456 265.88V265.016C1.832 265.176 2.212 265.256 2.596 265.256C3.524 265.256 3.988 264.712 3.988 263.624V257.42H5.032V263.672C5.032 264.488 4.812 265.1 4.372 265.508C3.932 265.908 3.36 266.108 2.656 266.108ZM10.1911 266.108C9.20706 266.108 8.44706 265.828 7.91106 265.268C7.37506 264.708 7.10706 263.908 7.10706 262.868V257.42H8.15106V262.748C8.15106 263.636 8.31506 264.276 8.64306 264.668C8.97106 265.052 9.49506 265.244 10.2151 265.244C10.9511 265.244 11.4991 265.052 11.8591 264.668C12.2191 264.284 12.3991 263.592 12.3991 262.592V257.42H13.4431V262.736C13.4431 263.808 13.1711 264.64 12.6271 265.232C12.0831 265.816 11.2711 266.108 10.1911 266.108ZM15.5945 266V257.42H16.9505L21.1265 264.512V257.42H22.1225V266H20.9225L16.5905 258.644V266H15.5945ZM30.1419 266.108C29.6539 266.108 29.1899 266.02 28.7499 265.844C28.3099 265.66 27.9379 265.368 27.6339 264.968C27.3299 264.568 27.1779 264.1 27.1779 263.564C27.1779 263.012 27.3259 262.548 27.6219 262.172C27.9179 261.796 28.3099 261.52 28.7979 261.344C28.3899 261.184 28.0699 260.948 27.8379 260.636C27.6139 260.324 27.5019 259.96 27.5019 259.544C27.5019 258.88 27.7659 258.344 28.2939 257.936C28.8299 257.52 29.4459 257.312 30.1419 257.312C30.8379 257.312 31.4499 257.52 31.9779 257.936C32.5059 258.344 32.7699 258.872 32.7699 259.52C32.7699 260.344 32.3299 260.948 31.4499 261.332C32.5459 261.732 33.0939 262.468 33.0939 263.54C33.0939 264.348 32.7979 264.98 32.2059 265.436C31.6219 265.884 30.9339 266.108 30.1419 266.108ZM30.1419 265.256C30.6939 265.256 31.1459 265.104 31.4979 264.8C31.8499 264.488 32.0259 264.056 32.0259 263.504C32.0259 262.96 31.8499 262.54 31.4979 262.244C31.1459 261.948 30.7019 261.8 30.1659 261.8C29.6219 261.8 29.1659 261.952 28.7979 262.256C28.4299 262.56 28.2459 262.984 28.2459 263.528C28.2459 264.064 28.4299 264.488 28.7979 264.8C29.1659 265.104 29.6139 265.256 30.1419 265.256ZM30.1779 260.972C30.6419 260.972 31.0139 260.844 31.2939 260.588C31.5739 260.332 31.7139 259.98 31.7139 259.532C31.7139 259.124 31.5619 258.788 31.2579 258.524C30.9619 258.26 30.5899 258.128 30.1419 258.128C29.6859 258.128 29.3059 258.26 29.0019 258.524C28.7059 258.78 28.5579 259.124 28.5579 259.556C28.5579 259.988 28.7139 260.332 29.0259 260.588C29.3379 260.844 29.7219 260.972 30.1779 260.972Z" fill="#B2B2B9"/>
<path d="M230.456 266.108C229.944 266.108 229.544 266.032 229.256 265.88V265.016C229.632 265.176 230.012 265.256 230.396 265.256C231.324 265.256 231.788 264.712 231.788 263.624V257.42H232.832V263.672C232.832 264.488 232.612 265.1 232.172 265.508C231.732 265.908 231.16 266.108 230.456 266.108ZM237.991 266.108C237.007 266.108 236.247 265.828 235.711 265.268C235.175 264.708 234.907 263.908 234.907 262.868V257.42H235.951V262.748C235.951 263.636 236.115 264.276 236.443 264.668C236.771 265.052 237.295 265.244 238.015 265.244C238.751 265.244 239.299 265.052 239.659 264.668C240.019 264.284 240.199 263.592 240.199 262.592V257.42H241.243V262.736C241.243 263.808 240.971 264.64 240.427 265.232C239.883 265.816 239.071 266.108 237.991 266.108ZM243.394 266V257.42H244.75L248.926 264.512V257.42H249.922V266H248.722L244.39 258.644V266H243.394ZM256.61 266V258.452L254.69 259.832V258.86L256.682 257.42H257.654V266H256.61ZM262.519 266.108C261.631 266.108 260.947 265.888 260.467 265.448C259.995 265.008 259.727 264.42 259.663 263.684H260.659C260.755 264.204 260.935 264.6 261.199 264.872C261.463 265.136 261.899 265.268 262.507 265.268C263.091 265.268 263.551 265.084 263.887 264.716C264.223 264.348 264.391 263.84 264.391 263.192C264.391 262.584 264.227 262.1 263.899 261.74C263.571 261.372 263.135 261.188 262.591 261.188C261.727 261.188 261.051 261.464 260.563 262.016H260.179V257.42H265.003V258.32H261.043V260.936C261.467 260.544 262.051 260.348 262.795 260.348C263.579 260.348 264.219 260.608 264.715 261.128C265.211 261.64 265.459 262.328 265.459 263.192C265.459 264.072 265.179 264.78 264.619 265.316C264.059 265.844 263.359 266.108 262.519 266.108Z" fill="#B2B2B9"/>
<path d="M463.256 266.108C462.744 266.108 462.344 266.032 462.056 265.88V265.016C462.432 265.176 462.812 265.256 463.196 265.256C464.124 265.256 464.588 264.712 464.588 263.624V257.42H465.632V263.672C465.632 264.488 465.412 265.1 464.972 265.508C464.532 265.908 463.96 266.108 463.256 266.108ZM470.791 266.108C469.807 266.108 469.047 265.828 468.511 265.268C467.975 264.708 467.707 263.908 467.707 262.868V257.42H468.751V262.748C468.751 263.636 468.915 264.276 469.243 264.668C469.571 265.052 470.095 265.244 470.815 265.244C471.551 265.244 472.099 265.052 472.459 264.668C472.819 264.284 472.999 263.592 472.999 262.592V257.42H474.043V262.736C474.043 263.808 473.771 264.64 473.227 265.232C472.683 265.816 471.871 266.108 470.791 266.108ZM476.194 266V257.42H477.55L481.726 264.512V257.42H482.722V266H481.522L477.19 258.644V266H476.194ZM487.322 266V265.76L490.73 262.172C491.554 261.3 491.966 260.472 491.966 259.688C491.966 259.208 491.83 258.832 491.558 258.56C491.294 258.288 490.918 258.152 490.43 258.152C489.382 258.152 488.778 258.788 488.618 260.06H487.646C487.71 259.212 487.986 258.544 488.474 258.056C488.97 257.56 489.622 257.312 490.43 257.312C491.222 257.312 491.85 257.532 492.314 257.972C492.786 258.404 493.022 258.988 493.022 259.724C493.022 260.676 492.446 261.716 491.294 262.844L488.93 265.148H493.07V266H487.322ZM494.026 266V265.76L497.434 262.172C498.258 261.3 498.67 260.472 498.67 259.688C498.67 259.208 498.534 258.832 498.262 258.56C497.998 258.288 497.622 258.152 497.134 258.152C496.086 258.152 495.482 258.788 495.322 260.06H494.35C494.414 259.212 494.69 258.544 495.178 258.056C495.674 257.56 496.326 257.312 497.134 257.312C497.926 257.312 498.554 257.532 499.018 257.972C499.49 258.404 499.726 258.988 499.726 259.724C499.726 260.676 499.15 261.716 497.998 262.844L495.634 265.148H499.774V266H494.026Z" fill="#B2B2B9"/>
<path d="M697.056 266.108C696.544 266.108 696.144 266.032 695.856 265.88V265.016C696.232 265.176 696.612 265.256 696.996 265.256C697.924 265.256 698.388 264.712 698.388 263.624V257.42H699.432V263.672C699.432 264.488 699.212 265.1 698.772 265.508C698.332 265.908 697.76 266.108 697.056 266.108ZM704.591 266.108C703.607 266.108 702.847 265.828 702.311 265.268C701.775 264.708 701.507 263.908 701.507 262.868V257.42H702.551V262.748C702.551 263.636 702.715 264.276 703.043 264.668C703.371 265.052 703.895 265.244 704.615 265.244C705.351 265.244 705.899 265.052 706.259 264.668C706.619 264.284 706.799 263.592 706.799 262.592V257.42H707.843V262.736C707.843 263.808 707.571 264.64 707.027 265.232C706.483 265.816 705.671 266.108 704.591 266.108ZM709.995 266V257.42H711.351L715.527 264.512V257.42H716.523V266H715.323L710.991 258.644V266H709.995ZM721.122 266V265.76L724.53 262.172C725.354 261.3 725.766 260.472 725.766 259.688C725.766 259.208 725.63 258.832 725.358 258.56C725.094 258.288 724.718 258.152 724.23 258.152C723.182 258.152 722.578 258.788 722.418 260.06H721.446C721.51 259.212 721.786 258.544 722.274 258.056C722.77 257.56 723.422 257.312 724.23 257.312C725.022 257.312 725.65 257.532 726.114 257.972C726.586 258.404 726.822 258.988 726.822 259.724C726.822 260.676 726.246 261.716 725.094 262.844L722.73 265.148H726.87V266H721.122ZM731.079 266.096C730.295 266.096 729.667 265.904 729.195 265.52C728.723 265.128 728.431 264.584 728.319 263.888H729.327C729.431 264.336 729.619 264.676 729.891 264.908C730.171 265.132 730.575 265.244 731.103 265.244C731.799 265.244 732.335 264.96 732.711 264.392C733.095 263.816 733.291 262.964 733.299 261.836C733.091 262.188 732.791 262.468 732.399 262.676C732.007 262.876 731.567 262.976 731.079 262.976C730.247 262.976 729.567 262.712 729.039 262.184C728.519 261.656 728.259 260.984 728.259 260.168C728.259 259.304 728.527 258.612 729.063 258.092C729.599 257.564 730.319 257.3 731.223 257.3C732.231 257.3 732.995 257.632 733.515 258.296C734.043 258.952 734.307 259.9 734.307 261.14V261.68C734.307 263.096 734.027 264.188 733.467 264.956C732.907 265.716 732.111 266.096 731.079 266.096ZM731.235 262.16C731.811 262.16 732.283 261.988 732.651 261.644C733.019 261.3 733.203 260.852 733.203 260.3C733.203 259.612 733.019 259.076 732.651 258.692C732.291 258.308 731.815 258.116 731.223 258.116C730.655 258.116 730.195 258.3 729.843 258.668C729.499 259.036 729.327 259.52 729.327 260.12C729.327 260.736 729.499 261.232 729.843 261.608C730.187 261.976 730.651 262.16 731.235 262.16Z" fill="#B2B2B9"/>
<path d="M931.856 266.108C931.344 266.108 930.944 266.032 930.656 265.88V265.016C931.032 265.176 931.412 265.256 931.796 265.256C932.724 265.256 933.188 264.712 933.188 263.624V257.42H934.232V263.672C934.232 264.488 934.012 265.1 933.572 265.508C933.132 265.908 932.56 266.108 931.856 266.108ZM939.391 266.108C938.407 266.108 937.647 265.828 937.111 265.268C936.575 264.708 936.307 263.908 936.307 262.868V257.42H937.351V262.748C937.351 263.636 937.515 264.276 937.843 264.668C938.171 265.052 938.695 265.244 939.415 265.244C940.151 265.244 940.699 265.052 941.059 264.668C941.419 264.284 941.599 263.592 941.599 262.592V257.42H942.643V262.736C942.643 263.808 942.371 264.64 941.827 265.232C941.283 265.816 940.471 266.108 939.391 266.108ZM944.795 266V257.42H945.839V265.148H949.763V266H944.795ZM957.236 266.108C956.668 266.108 956.18 266.008 955.772 265.808C955.364 265.608 955.044 265.324 954.812 264.956C954.58 264.588 954.412 264.18 954.308 263.732C954.204 263.276 954.152 262.768 954.152 262.208V262.004C954.152 260.5 954.456 259.344 955.064 258.536C955.68 257.72 956.496 257.312 957.512 257.312C958.192 257.312 958.752 257.488 959.192 257.84C959.632 258.192 959.908 258.708 960.02 259.388H959.024C958.928 258.972 958.756 258.664 958.508 258.464C958.26 258.264 957.904 258.164 957.44 258.164C956.776 258.164 956.24 258.46 955.832 259.052C955.424 259.644 955.208 260.492 955.184 261.596C955.392 261.244 955.688 260.964 956.072 260.756C956.464 260.54 956.904 260.432 957.392 260.432C958.232 260.432 958.908 260.7 959.42 261.236C959.94 261.772 960.2 262.44 960.2 263.24C960.2 264.104 959.932 264.8 959.396 265.328C958.86 265.848 958.14 266.108 957.236 266.108ZM957.236 265.292C957.804 265.292 958.26 265.108 958.604 264.74C958.956 264.372 959.132 263.888 959.132 263.288C959.132 262.672 958.96 262.18 958.616 261.812C958.272 261.436 957.808 261.248 957.224 261.248C956.648 261.248 956.176 261.424 955.808 261.776C955.44 262.128 955.256 262.584 955.256 263.144C955.256 263.824 955.436 264.352 955.796 264.728C956.164 265.104 956.644 265.292 957.236 265.292Z" fill="#B2B2B9"/>
<path d="M1157.66 266.108C1157.14 266.108 1156.74 266.032 1156.46 265.88V265.016C1156.83 265.176 1157.21 265.256 1157.6 265.256C1158.52 265.256 1158.99 264.712 1158.99 263.624V257.42H1160.03V263.672C1160.03 264.488 1159.81 265.1 1159.37 265.508C1158.93 265.908 1158.36 266.108 1157.66 266.108ZM1165.19 266.108C1164.21 266.108 1163.45 265.828 1162.91 265.268C1162.38 264.708 1162.11 263.908 1162.11 262.868V257.42H1163.15V262.748C1163.15 263.636 1163.32 264.276 1163.64 264.668C1163.97 265.052 1164.5 265.244 1165.22 265.244C1165.95 265.244 1166.5 265.052 1166.86 264.668C1167.22 264.284 1167.4 263.592 1167.4 262.592V257.42H1168.44V262.736C1168.44 263.808 1168.17 264.64 1167.63 265.232C1167.08 265.816 1166.27 266.108 1165.19 266.108ZM1170.59 266V257.42H1171.64V265.148H1175.56V266H1170.59ZM1181.55 266V258.452L1179.63 259.832V258.86L1181.62 257.42H1182.59V266H1181.55ZM1187.57 266.108C1186.68 266.108 1185.96 265.86 1185.42 265.364C1184.88 264.868 1184.6 264.236 1184.57 263.468H1185.53C1185.57 264.012 1185.77 264.448 1186.1 264.776C1186.45 265.104 1186.94 265.268 1187.59 265.268C1188.25 265.268 1188.73 265.124 1189.05 264.836C1189.38 264.54 1189.55 264.132 1189.55 263.612C1189.55 262.5 1188.94 261.944 1187.73 261.944H1187.09V261.068H1187.69C1188.76 261.068 1189.29 260.58 1189.29 259.604C1189.29 259.18 1189.16 258.836 1188.89 258.572C1188.62 258.3 1188.24 258.164 1187.73 258.164C1187.21 258.164 1186.77 258.312 1186.43 258.608C1186.09 258.904 1185.89 259.296 1185.84 259.784H1184.93C1184.96 259.088 1185.23 258.504 1185.75 258.032C1186.27 257.552 1186.93 257.312 1187.73 257.312C1188.52 257.312 1189.14 257.536 1189.61 257.984C1190.08 258.424 1190.31 258.956 1190.31 259.58C1190.31 260.452 1189.86 261.076 1188.96 261.452C1189.48 261.588 1189.88 261.84 1190.17 262.208C1190.47 262.568 1190.61 263.036 1190.61 263.612C1190.61 264.38 1190.33 264.988 1189.76 265.436C1189.2 265.884 1188.47 266.108 1187.57 266.108Z" fill="#B2B2B9"/>
</svg>
